<svg width="201" height="45" viewBox="0 0 201 45" fill="none" xmlns="http://www.w3.org/2000/svg">
<path d="M24.348 30.78V33.06H10.968L10.488 31.5C11.328 30.56 11.948 29.66 12.348 28.8C12.768 27.94 12.978 26.88 12.978 25.62C12.978 25.1 12.888 24.48 12.708 23.76H9.31805V21.84H12.048C11.788 21.14 11.588 20.48 11.448 19.86C11.308 19.22 11.238 18.52 11.238 17.76C11.238 16.48 11.508 15.37 12.048 14.43C12.608 13.47 13.378 12.73 14.358 12.21C15.358 11.69 16.498 11.43 17.778 11.43C19.818 11.43 21.388 12.02 22.488 13.2C23.588 14.38 24.178 15.87 24.258 17.67H21.738C21.698 16.49 21.338 15.54 20.658 14.82C19.998 14.1 19.038 13.74 17.778 13.74C16.618 13.74 15.668 14.08 14.928 14.76C14.208 15.44 13.848 16.48 13.848 17.88C13.848 18.54 13.918 19.17 14.058 19.77C14.198 20.35 14.408 21.04 14.688 21.84H20.508V23.76H15.288C15.468 24.48 15.558 25.1 15.558 25.62C15.558 27.52 14.848 29.24 13.428 30.78H24.348ZM27.7416 13.8V11.31H33.3816V33H30.6216V13.8H27.7416ZM37.7409 30.81C40.2809 28.77 42.2709 27.1 43.7109 25.8C45.1509 24.48 46.3609 23.11 47.3409 21.69C48.3409 20.25 48.8409 18.84 48.8409 17.46C48.8409 16.16 48.5209 15.14 47.8809 14.4C47.2609 13.64 46.2509 13.26 44.8509 13.26C43.4909 13.26 42.4309 13.69 41.6709 14.55C40.9309 15.39 40.5309 16.52 40.4709 17.94H37.8309C37.9109 15.7 38.5909 13.97 39.8709 12.75C41.1509 11.53 42.8009 10.92 44.8209 10.92C46.8809 10.92 48.5109 11.49 49.7109 12.63C50.9309 13.77 51.5409 15.34 51.5409 17.34C51.5409 19 51.0409 20.62 50.0409 22.2C49.0609 23.76 47.9409 25.14 46.6809 26.34C45.4209 27.52 43.8109 28.9 41.8509 30.48H52.1709V32.76H37.7409V30.81ZM56.6468 33.18C56.1268 33.18 55.6868 33 55.3268 32.64C54.9668 32.28 54.7868 31.84 54.7868 31.32C54.7868 30.8 54.9668 30.36 55.3268 30C55.6868 29.64 56.1268 29.46 56.6468 29.46C57.1468 29.46 57.5668 29.64 57.9068 30C58.2668 30.36 58.4468 30.8 58.4468 31.32C58.4468 31.84 58.2668 32.28 57.9068 32.64C57.5668 33 57.1468 33.18 56.6468 33.18ZM65.1356 27.18C65.3356 28.32 65.7956 29.2 66.5156 29.82C67.2556 30.44 68.2456 30.75 69.4856 30.75C71.1456 30.75 72.3656 30.1 73.1456 28.8C73.9456 27.5 74.3256 25.31 74.2856 22.23C73.8656 23.13 73.1656 23.84 72.1856 24.36C71.2056 24.86 70.1156 25.11 68.9156 25.11C67.5756 25.11 66.3756 24.84 65.3156 24.3C64.2756 23.74 63.4556 22.93 62.8556 21.87C62.2556 20.81 61.9556 19.53 61.9556 18.03C61.9556 15.89 62.5756 14.17 63.8156 12.87C65.0556 11.55 66.8156 10.89 69.0956 10.89C71.8956 10.89 73.8556 11.8 74.9756 13.62C76.1156 15.44 76.6856 18.15 76.6856 21.75C76.6856 24.27 76.4556 26.35 75.9956 27.99C75.5556 29.63 74.7956 30.88 73.7156 31.74C72.6556 32.6 71.1956 33.03 69.3356 33.03C67.2956 33.03 65.7056 32.48 64.5656 31.38C63.4256 30.28 62.7756 28.88 62.6156 27.18H65.1356ZM69.3656 22.8C70.7056 22.8 71.8056 22.39 72.6656 21.57C73.5256 20.73 73.9556 19.6 73.9556 18.18C73.9556 16.68 73.5356 15.47 72.6956 14.55C71.8556 13.63 70.6756 13.17 69.1556 13.17C67.7556 13.17 66.6356 13.61 65.7956 14.49C64.9756 15.37 64.5656 16.53 64.5656 17.97C64.5656 19.43 64.9756 20.6 65.7956 21.48C66.6156 22.36 67.8056 22.8 69.3656 22.8ZM84.0321 27.18C84.2321 28.32 84.6921 29.2 85.4121 29.82C86.1521 30.44 87.1421 30.75 88.3821 30.75C90.0421 30.75 91.2621 30.1 92.0421 28.8C92.8421 27.5 93.2221 25.31 93.1821 22.23C92.7621 23.13 92.0621 23.84 91.0821 24.36C90.1021 24.86 89.0121 25.11 87.8121 25.11C86.4721 25.11 85.2721 24.84 84.2121 24.3C83.1721 23.74 82.3521 22.93 81.7521 21.87C81.1521 20.81 80.8521 19.53 80.8521 18.03C80.8521 15.89 81.4721 14.17 82.7121 12.87C83.9521 11.55 85.7121 10.89 87.9921 10.89C90.7921 10.89 92.7521 11.8 93.8721 13.62C95.0121 15.44 95.5821 18.15 95.5821 21.75C95.5821 24.27 95.3521 26.35 94.8921 27.99C94.4521 29.63 93.6921 30.88 92.6121 31.74C91.5521 32.6 90.0921 33.03 88.2321 33.03C86.1921 33.03 84.6021 32.48 83.4621 31.38C82.3221 30.28 81.6721 28.88 81.5121 27.18H84.0321ZM88.2621 22.8C89.6021 22.8 90.7021 22.39 91.5621 21.57C92.4221 20.73 92.8521 19.6 92.8521 18.18C92.8521 16.68 92.4321 15.47 91.5921 14.55C90.7521 13.63 89.5721 13.17 88.0521 13.17C86.6521 13.17 85.5321 13.61 84.6921 14.49C83.8721 15.37 83.4621 16.53 83.4621 17.97C83.4621 19.43 83.8721 20.6 84.6921 21.48C85.5121 22.36 86.7021 22.8 88.2621 22.8Z" fill="#263238"/>
<path d="M108.823 18.954C109.147 18.39 109.627 17.922 110.263 17.55C110.911 17.166 111.661 16.974 112.513 16.974C113.389 16.974 114.181 17.184 114.889 17.604C115.609 18.024 116.173 18.618 116.581 19.386C116.989 20.142 117.193 21.024 117.193 22.032C117.193 23.028 116.989 23.916 116.581 24.696C116.173 25.476 115.609 26.082 114.889 26.514C114.181 26.946 113.389 27.162 112.513 27.162C111.673 27.162 110.929 26.976 110.281 26.604C109.645 26.22 109.159 25.746 108.823 25.182V31.68H107.185V17.136H108.823V18.954ZM115.519 22.032C115.519 21.288 115.369 20.64 115.069 20.088C114.769 19.536 114.361 19.116 113.845 18.828C113.341 18.54 112.783 18.396 112.171 18.396C111.571 18.396 111.013 18.546 110.497 18.846C109.993 19.134 109.585 19.56 109.273 20.124C108.973 20.676 108.823 21.318 108.823 22.05C108.823 22.794 108.973 23.448 109.273 24.012C109.585 24.564 109.993 24.99 110.497 25.29C111.013 25.578 111.571 25.722 112.171 25.722C112.783 25.722 113.341 25.578 113.845 25.29C114.361 24.99 114.769 24.564 115.069 24.012C115.369 23.448 115.519 22.788 115.519 22.032ZM128.349 21.69C128.349 22.002 128.331 22.332 128.295 22.68H120.411C120.471 23.652 120.801 24.414 121.401 24.966C122.013 25.506 122.751 25.776 123.615 25.776C124.323 25.776 124.911 25.614 125.379 25.29C125.859 24.954 126.195 24.51 126.387 23.958H128.151C127.887 24.906 127.359 25.68 126.567 26.28C125.775 26.868 124.791 27.162 123.615 27.162C122.679 27.162 121.839 26.952 121.095 26.532C120.363 26.112 119.787 25.518 119.367 24.75C118.947 23.97 118.737 23.07 118.737 22.05C118.737 21.03 118.941 20.136 119.349 19.368C119.757 18.6 120.327 18.012 121.059 17.604C121.803 17.184 122.655 16.974 123.615 16.974C124.551 16.974 125.379 17.178 126.099 17.586C126.819 17.994 127.371 18.558 127.755 19.278C128.151 19.986 128.349 20.79 128.349 21.69ZM126.657 21.348C126.657 20.724 126.519 20.19 126.243 19.746C125.967 19.29 125.589 18.948 125.109 18.72C124.641 18.48 124.119 18.36 123.543 18.36C122.715 18.36 122.007 18.624 121.419 19.152C120.843 19.68 120.513 20.412 120.429 21.348H126.657ZM132.149 18.738C132.437 18.174 132.845 17.736 133.373 17.424C133.913 17.112 134.567 16.956 135.335 16.956V18.648H134.903C133.067 18.648 132.149 19.644 132.149 21.636V27H130.511V17.136H132.149V18.738ZM153.887 16.956C154.655 16.956 155.339 17.118 155.939 17.442C156.539 17.754 157.013 18.228 157.361 18.864C157.709 19.5 157.883 20.274 157.883 21.186V27H156.263V21.42C156.263 20.436 156.017 19.686 155.525 19.17C155.045 18.642 154.391 18.378 153.563 18.378C152.711 18.378 152.033 18.654 151.529 19.206C151.025 19.746 150.773 20.532 150.773 21.564V27H149.153V21.42C149.153 20.436 148.907 19.686 148.415 19.17C147.935 18.642 147.281 18.378 146.453 18.378C145.601 18.378 144.923 18.654 144.419 19.206C143.915 19.746 143.663 20.532 143.663 21.564V27H142.025V17.136H143.663V18.558C143.987 18.042 144.419 17.646 144.959 17.37C145.511 17.094 146.117 16.956 146.777 16.956C147.605 16.956 148.337 17.142 148.973 17.514C149.609 17.886 150.083 18.432 150.395 19.152C150.671 18.456 151.127 17.916 151.763 17.532C152.399 17.148 153.107 16.956 153.887 16.956ZM164.872 27.162C163.948 27.162 163.108 26.952 162.352 26.532C161.608 26.112 161.02 25.518 160.588 24.75C160.168 23.97 159.958 23.07 159.958 22.05C159.958 21.042 160.174 20.154 160.606 19.386C161.05 18.606 161.65 18.012 162.406 17.604C163.162 17.184 164.008 16.974 164.944 16.974C165.88 16.974 166.726 17.184 167.482 17.604C168.238 18.012 168.832 18.6 169.264 19.368C169.708 20.136 169.93 21.03 169.93 22.05C169.93 23.07 169.702 23.97 169.246 24.75C168.802 25.518 168.196 26.112 167.428 26.532C166.66 26.952 165.808 27.162 164.872 27.162ZM164.872 25.722C165.46 25.722 166.012 25.584 166.528 25.308C167.044 25.032 167.458 24.618 167.77 24.066C168.094 23.514 168.256 22.842 168.256 22.05C168.256 21.258 168.1 20.586 167.788 20.034C167.476 19.482 167.068 19.074 166.564 18.81C166.06 18.534 165.514 18.396 164.926 18.396C164.326 18.396 163.774 18.534 163.27 18.81C162.778 19.074 162.382 19.482 162.082 20.034C161.782 20.586 161.632 21.258 161.632 22.05C161.632 22.854 161.776 23.532 162.064 24.084C162.364 24.636 162.76 25.05 163.252 25.326C163.744 25.59 164.284 25.722 164.872 25.722ZM176.889 16.956C178.089 16.956 179.061 17.322 179.805 18.054C180.549 18.774 180.921 19.818 180.921 21.186V27H179.301V21.42C179.301 20.436 179.055 19.686 178.563 19.17C178.071 18.642 177.399 18.378 176.547 18.378C175.683 18.378 174.993 18.648 174.477 19.188C173.973 19.728 173.721 20.514 173.721 21.546V27H172.083V17.136H173.721V18.54C174.045 18.036 174.483 17.646 175.035 17.37C175.599 17.094 176.217 16.956 176.889 16.956ZM185.595 18.486V24.3C185.595 24.78 185.697 25.122 185.901 25.326C186.105 25.518 186.459 25.614 186.963 25.614H188.169V27H186.693C185.781 27 185.097 26.79 184.641 26.37C184.185 25.95 183.957 25.26 183.957 24.3V18.486H182.679V17.136H183.957V14.652H185.595V17.136H188.169V18.486H185.595ZM195.05 16.956C195.794 16.956 196.466 17.118 197.066 17.442C197.666 17.754 198.134 18.228 198.47 18.864C198.818 19.5 198.992 20.274 198.992 21.186V27H197.372V21.42C197.372 20.436 197.126 19.686 196.634 19.17C196.142 18.642 195.47 18.378 194.618 18.378C193.754 18.378 193.064 18.648 192.548 19.188C192.044 19.728 191.792 20.514 191.792 21.546V27H190.154V13.68H191.792V18.54C192.116 18.036 192.56 17.646 193.124 17.37C193.7 17.094 194.342 16.956 195.05 16.956Z" fill="#546269"/>
</svg>
