<svg width="198" height="45" viewBox="0 0 198 45" fill="none" xmlns="http://www.w3.org/2000/svg">
<path d="M24.348 30.78V33.06H10.968L10.488 31.5C11.328 30.56 11.948 29.66 12.348 28.8C12.768 27.94 12.978 26.88 12.978 25.62C12.978 25.1 12.888 24.48 12.708 23.76H9.31805V21.84H12.048C11.788 21.14 11.588 20.48 11.448 19.86C11.308 19.22 11.238 18.52 11.238 17.76C11.238 16.48 11.508 15.37 12.048 14.43C12.608 13.47 13.378 12.73 14.358 12.21C15.358 11.69 16.498 11.43 17.778 11.43C19.818 11.43 21.388 12.02 22.488 13.2C23.588 14.38 24.178 15.87 24.258 17.67H21.738C21.698 16.49 21.338 15.54 20.658 14.82C19.998 14.1 19.038 13.74 17.778 13.74C16.618 13.74 15.668 14.08 14.928 14.76C14.208 15.44 13.848 16.48 13.848 17.88C13.848 18.54 13.918 19.17 14.058 19.77C14.198 20.35 14.408 21.04 14.688 21.84H20.508V23.76H15.288C15.468 24.48 15.558 25.1 15.558 25.62C15.558 27.52 14.848 29.24 13.428 30.78H24.348ZM42.2916 13.68H31.7616V20.52C32.2216 19.88 32.9016 19.36 33.8016 18.96C34.7016 18.54 35.6716 18.33 36.7116 18.33C38.3716 18.33 39.7216 18.68 40.7616 19.38C41.8016 20.06 42.5416 20.95 42.9816 22.05C43.4416 23.13 43.6716 24.28 43.6716 25.5C43.6716 26.94 43.4016 28.23 42.8616 29.37C42.3216 30.51 41.4916 31.41 40.3716 32.07C39.2716 32.73 37.9016 33.06 36.2616 33.06C34.1616 33.06 32.4616 32.52 31.1616 31.44C29.8616 30.36 29.0716 28.92 28.7916 27.12H31.4616C31.7216 28.26 32.2716 29.15 33.1116 29.79C33.9516 30.43 35.0116 30.75 36.2916 30.75C37.8716 30.75 39.0616 30.28 39.8616 29.34C40.6616 28.38 41.0616 27.12 41.0616 25.56C41.0616 24 40.6616 22.8 39.8616 21.96C39.0616 21.1 37.8816 20.67 36.3216 20.67C35.2616 20.67 34.3316 20.93 33.5316 21.45C32.7516 21.95 32.1816 22.64 31.8216 23.52H29.2416V11.28H42.2916V13.68ZM48.6195 33.18C48.0995 33.18 47.6595 33 47.2995 32.64C46.9395 32.28 46.7595 31.84 46.7595 31.32C46.7595 30.8 46.9395 30.36 47.2995 30C47.6595 29.64 48.0995 29.46 48.6195 29.46C49.1195 29.46 49.5395 29.64 49.8795 30C50.2395 30.36 50.4195 30.8 50.4195 31.32C50.4195 31.84 50.2395 32.28 49.8795 32.64C49.5395 33 49.1195 33.18 48.6195 33.18ZM57.1083 27.18C57.3083 28.32 57.7683 29.2 58.4883 29.82C59.2283 30.44 60.2183 30.75 61.4583 30.75C63.1183 30.75 64.3383 30.1 65.1183 28.8C65.9183 27.5 66.2983 25.31 66.2583 22.23C65.8383 23.13 65.1383 23.84 64.1583 24.36C63.1783 24.86 62.0883 25.11 60.8883 25.11C59.5483 25.11 58.3483 24.84 57.2883 24.3C56.2483 23.74 55.4283 22.93 54.8283 21.87C54.2283 20.81 53.9283 19.53 53.9283 18.03C53.9283 15.89 54.5483 14.17 55.7883 12.87C57.0283 11.55 58.7883 10.89 61.0683 10.89C63.8683 10.89 65.8283 11.8 66.9483 13.62C68.0883 15.44 68.6583 18.15 68.6583 21.75C68.6583 24.27 68.4283 26.35 67.9683 27.99C67.5283 29.63 66.7683 30.88 65.6883 31.74C64.6283 32.6 63.1683 33.03 61.3083 33.03C59.2683 33.03 57.6783 32.48 56.5383 31.38C55.3983 30.28 54.7483 28.88 54.5883 27.18H57.1083ZM61.3383 22.8C62.6783 22.8 63.7783 22.39 64.6383 21.57C65.4983 20.73 65.9283 19.6 65.9283 18.18C65.9283 16.68 65.5083 15.47 64.6683 14.55C63.8283 13.63 62.6483 13.17 61.1283 13.17C59.7283 13.17 58.6083 13.61 57.7683 14.49C56.9483 15.37 56.5383 16.53 56.5383 17.97C56.5383 19.43 56.9483 20.6 57.7683 21.48C58.5883 22.36 59.7783 22.8 61.3383 22.8ZM76.0048 27.18C76.2048 28.32 76.6648 29.2 77.3848 29.82C78.1248 30.44 79.1148 30.75 80.3548 30.75C82.0148 30.75 83.2348 30.1 84.0148 28.8C84.8148 27.5 85.1948 25.31 85.1548 22.23C84.7348 23.13 84.0348 23.84 83.0548 24.36C82.0748 24.86 80.9848 25.11 79.7848 25.11C78.4448 25.11 77.2448 24.84 76.1848 24.3C75.1448 23.74 74.3248 22.93 73.7248 21.87C73.1248 20.81 72.8248 19.53 72.8248 18.03C72.8248 15.89 73.4448 14.17 74.6848 12.87C75.9248 11.55 77.6848 10.89 79.9648 10.89C82.7648 10.89 84.7248 11.8 85.8448 13.62C86.9848 15.44 87.5548 18.15 87.5548 21.75C87.5548 24.27 87.3248 26.35 86.8648 27.99C86.4248 29.63 85.6648 30.88 84.5848 31.74C83.5248 32.6 82.0648 33.03 80.2048 33.03C78.1648 33.03 76.5748 32.48 75.4348 31.38C74.2948 30.28 73.6448 28.88 73.4848 27.18H76.0048ZM80.2348 22.8C81.5748 22.8 82.6748 22.39 83.5348 21.57C84.3948 20.73 84.8248 19.6 84.8248 18.18C84.8248 16.68 84.4048 15.47 83.5648 14.55C82.7248 13.63 81.5448 13.17 80.0248 13.17C78.6248 13.17 77.5048 13.61 76.6648 14.49C75.8448 15.37 75.4348 16.53 75.4348 17.97C75.4348 19.43 75.8448 20.6 76.6648 21.48C77.4848 22.36 78.6748 22.8 80.2348 22.8Z" fill="#263238"/>
<path d="M105.823 18.954C106.147 18.39 106.627 17.922 107.263 17.55C107.911 17.166 108.661 16.974 109.513 16.974C110.389 16.974 111.181 17.184 111.889 17.604C112.609 18.024 113.173 18.618 113.581 19.386C113.989 20.142 114.193 21.024 114.193 22.032C114.193 23.028 113.989 23.916 113.581 24.696C113.173 25.476 112.609 26.082 111.889 26.514C111.181 26.946 110.389 27.162 109.513 27.162C108.673 27.162 107.929 26.976 107.281 26.604C106.645 26.22 106.159 25.746 105.823 25.182V31.68H104.185V17.136H105.823V18.954ZM112.519 22.032C112.519 21.288 112.369 20.64 112.069 20.088C111.769 19.536 111.361 19.116 110.845 18.828C110.341 18.54 109.783 18.396 109.171 18.396C108.571 18.396 108.013 18.546 107.497 18.846C106.993 19.134 106.585 19.56 106.273 20.124C105.973 20.676 105.823 21.318 105.823 22.05C105.823 22.794 105.973 23.448 106.273 24.012C106.585 24.564 106.993 24.99 107.497 25.29C108.013 25.578 108.571 25.722 109.171 25.722C109.783 25.722 110.341 25.578 110.845 25.29C111.361 24.99 111.769 24.564 112.069 24.012C112.369 23.448 112.519 22.788 112.519 22.032ZM125.349 21.69C125.349 22.002 125.331 22.332 125.295 22.68H117.411C117.471 23.652 117.801 24.414 118.401 24.966C119.013 25.506 119.751 25.776 120.615 25.776C121.323 25.776 121.911 25.614 122.379 25.29C122.859 24.954 123.195 24.51 123.387 23.958H125.151C124.887 24.906 124.359 25.68 123.567 26.28C122.775 26.868 121.791 27.162 120.615 27.162C119.679 27.162 118.839 26.952 118.095 26.532C117.363 26.112 116.787 25.518 116.367 24.75C115.947 23.97 115.737 23.07 115.737 22.05C115.737 21.03 115.941 20.136 116.349 19.368C116.757 18.6 117.327 18.012 118.059 17.604C118.803 17.184 119.655 16.974 120.615 16.974C121.551 16.974 122.379 17.178 123.099 17.586C123.819 17.994 124.371 18.558 124.755 19.278C125.151 19.986 125.349 20.79 125.349 21.69ZM123.657 21.348C123.657 20.724 123.519 20.19 123.243 19.746C122.967 19.29 122.589 18.948 122.109 18.72C121.641 18.48 121.119 18.36 120.543 18.36C119.715 18.36 119.007 18.624 118.419 19.152C117.843 19.68 117.513 20.412 117.429 21.348H123.657ZM129.149 18.738C129.437 18.174 129.845 17.736 130.373 17.424C130.913 17.112 131.567 16.956 132.335 16.956V18.648H131.903C130.067 18.648 129.149 19.644 129.149 21.636V27H127.511V17.136H129.149V18.738ZM150.887 16.956C151.655 16.956 152.339 17.118 152.939 17.442C153.539 17.754 154.013 18.228 154.361 18.864C154.709 19.5 154.883 20.274 154.883 21.186V27H153.263V21.42C153.263 20.436 153.017 19.686 152.525 19.17C152.045 18.642 151.391 18.378 150.563 18.378C149.711 18.378 149.033 18.654 148.529 19.206C148.025 19.746 147.773 20.532 147.773 21.564V27H146.153V21.42C146.153 20.436 145.907 19.686 145.415 19.17C144.935 18.642 144.281 18.378 143.453 18.378C142.601 18.378 141.923 18.654 141.419 19.206C140.915 19.746 140.663 20.532 140.663 21.564V27H139.025V17.136H140.663V18.558C140.987 18.042 141.419 17.646 141.959 17.37C142.511 17.094 143.117 16.956 143.777 16.956C144.605 16.956 145.337 17.142 145.973 17.514C146.609 17.886 147.083 18.432 147.395 19.152C147.671 18.456 148.127 17.916 148.763 17.532C149.399 17.148 150.107 16.956 150.887 16.956ZM161.872 27.162C160.948 27.162 160.108 26.952 159.352 26.532C158.608 26.112 158.02 25.518 157.588 24.75C157.168 23.97 156.958 23.07 156.958 22.05C156.958 21.042 157.174 20.154 157.606 19.386C158.05 18.606 158.65 18.012 159.406 17.604C160.162 17.184 161.008 16.974 161.944 16.974C162.88 16.974 163.726 17.184 164.482 17.604C165.238 18.012 165.832 18.6 166.264 19.368C166.708 20.136 166.93 21.03 166.93 22.05C166.93 23.07 166.702 23.97 166.246 24.75C165.802 25.518 165.196 26.112 164.428 26.532C163.66 26.952 162.808 27.162 161.872 27.162ZM161.872 25.722C162.46 25.722 163.012 25.584 163.528 25.308C164.044 25.032 164.458 24.618 164.77 24.066C165.094 23.514 165.256 22.842 165.256 22.05C165.256 21.258 165.1 20.586 164.788 20.034C164.476 19.482 164.068 19.074 163.564 18.81C163.06 18.534 162.514 18.396 161.926 18.396C161.326 18.396 160.774 18.534 160.27 18.81C159.778 19.074 159.382 19.482 159.082 20.034C158.782 20.586 158.632 21.258 158.632 22.05C158.632 22.854 158.776 23.532 159.064 24.084C159.364 24.636 159.76 25.05 160.252 25.326C160.744 25.59 161.284 25.722 161.872 25.722ZM173.889 16.956C175.089 16.956 176.061 17.322 176.805 18.054C177.549 18.774 177.921 19.818 177.921 21.186V27H176.301V21.42C176.301 20.436 176.055 19.686 175.563 19.17C175.071 18.642 174.399 18.378 173.547 18.378C172.683 18.378 171.993 18.648 171.477 19.188C170.973 19.728 170.721 20.514 170.721 21.546V27H169.083V17.136H170.721V18.54C171.045 18.036 171.483 17.646 172.035 17.37C172.599 17.094 173.217 16.956 173.889 16.956ZM182.595 18.486V24.3C182.595 24.78 182.697 25.122 182.901 25.326C183.105 25.518 183.459 25.614 183.963 25.614H185.169V27H183.693C182.781 27 182.097 26.79 181.641 26.37C181.185 25.95 180.957 25.26 180.957 24.3V18.486H179.679V17.136H180.957V14.652H182.595V17.136H185.169V18.486H182.595ZM192.05 16.956C192.794 16.956 193.466 17.118 194.066 17.442C194.666 17.754 195.134 18.228 195.47 18.864C195.818 19.5 195.992 20.274 195.992 21.186V27H194.372V21.42C194.372 20.436 194.126 19.686 193.634 19.17C193.142 18.642 192.47 18.378 191.618 18.378C190.754 18.378 190.064 18.648 189.548 19.188C189.044 19.728 188.792 20.514 188.792 21.546V27H187.154V13.68H188.792V18.54C189.116 18.036 189.56 17.646 190.124 17.37C190.7 17.094 191.342 16.956 192.05 16.956Z" fill="#546269"/>
</svg>
