<svg width="210" height="45" viewBox="0 0 210 45" fill="none" xmlns="http://www.w3.org/2000/svg">
<path d="M24.348 30.78V33.06H10.968L10.488 31.5C11.328 30.56 11.948 29.66 12.348 28.8C12.768 27.94 12.978 26.88 12.978 25.62C12.978 25.1 12.888 24.48 12.708 23.76H9.31805V21.84H12.048C11.788 21.14 11.588 20.48 11.448 19.86C11.308 19.22 11.238 18.52 11.238 17.76C11.238 16.48 11.508 15.37 12.048 14.43C12.608 13.47 13.378 12.73 14.358 12.21C15.358 11.69 16.498 11.43 17.778 11.43C19.818 11.43 21.388 12.02 22.488 13.2C23.588 14.38 24.178 15.87 24.258 17.67H21.738C21.698 16.49 21.338 15.54 20.658 14.82C19.998 14.1 19.038 13.74 17.778 13.74C16.618 13.74 15.668 14.08 14.928 14.76C14.208 15.44 13.848 16.48 13.848 17.88C13.848 18.54 13.918 19.17 14.058 19.77C14.198 20.35 14.408 21.04 14.688 21.84H20.508V23.76H15.288C15.468 24.48 15.558 25.1 15.558 25.62C15.558 27.52 14.848 29.24 13.428 30.78H24.348ZM28.1316 30.81C30.6716 28.77 32.6616 27.1 34.1016 25.8C35.5416 24.48 36.7516 23.11 37.7316 21.69C38.7316 20.25 39.2316 18.84 39.2316 17.46C39.2316 16.16 38.9116 15.14 38.2716 14.4C37.6516 13.64 36.6416 13.26 35.2416 13.26C33.8816 13.26 32.8216 13.69 32.0616 14.55C31.3216 15.39 30.9216 16.52 30.8616 17.94H28.2216C28.3016 15.7 28.9816 13.97 30.2616 12.75C31.5416 11.53 33.1916 10.92 35.2116 10.92C37.2716 10.92 38.9016 11.49 40.1016 12.63C41.3216 13.77 41.9316 15.34 41.9316 17.34C41.9316 19 41.4316 20.62 40.4316 22.2C39.4516 23.76 38.3316 25.14 37.0716 26.34C35.8116 27.52 34.2016 28.9 32.2416 30.48H42.5616V32.76H28.1316V30.81ZM45.7174 21.93C45.7174 18.49 46.2774 15.81 47.3974 13.89C48.5174 11.95 50.4774 10.98 53.2774 10.98C56.0574 10.98 58.0074 11.95 59.1274 13.89C60.2474 15.81 60.8074 18.49 60.8074 21.93C60.8074 25.43 60.2474 28.15 59.1274 30.09C58.0074 32.03 56.0574 33 53.2774 33C50.4774 33 48.5174 32.03 47.3974 30.09C46.2774 28.15 45.7174 25.43 45.7174 21.93ZM58.1074 21.93C58.1074 20.19 57.9874 18.72 57.7474 17.52C57.5274 16.3 57.0574 15.32 56.3374 14.58C55.6374 13.84 54.6174 13.47 53.2774 13.47C51.9174 13.47 50.8774 13.84 50.1574 14.58C49.4574 15.32 48.9874 16.3 48.7474 17.52C48.5274 18.72 48.4174 20.19 48.4174 21.93C48.4174 23.73 48.5274 25.24 48.7474 26.46C48.9874 27.68 49.4574 28.66 50.1574 29.4C50.8774 30.14 51.9174 30.51 53.2774 30.51C54.6174 30.51 55.6374 30.14 56.3374 29.4C57.0574 28.66 57.5274 27.68 57.7474 26.46C57.9874 25.24 58.1074 23.73 58.1074 21.93ZM65.8753 33.18C65.3553 33.18 64.9153 33 64.5553 32.64C64.1953 32.28 64.0153 31.84 64.0153 31.32C64.0153 30.8 64.1953 30.36 64.5553 30C64.9153 29.64 65.3553 29.46 65.8753 29.46C66.3753 29.46 66.7953 29.64 67.1353 30C67.4953 30.36 67.6753 30.8 67.6753 31.32C67.6753 31.84 67.4953 32.28 67.1353 32.64C66.7953 33 66.3753 33.18 65.8753 33.18ZM74.3641 27.18C74.5641 28.32 75.0241 29.2 75.7441 29.82C76.4841 30.44 77.4741 30.75 78.7141 30.75C80.3741 30.75 81.5941 30.1 82.3741 28.8C83.1741 27.5 83.5541 25.31 83.5141 22.23C83.0941 23.13 82.3941 23.84 81.4141 24.36C80.4341 24.86 79.3441 25.11 78.1441 25.11C76.8041 25.11 75.6041 24.84 74.5441 24.3C73.5041 23.74 72.6841 22.93 72.0841 21.87C71.4841 20.81 71.1841 19.53 71.1841 18.03C71.1841 15.89 71.8041 14.17 73.0441 12.87C74.2841 11.55 76.0441 10.89 78.3241 10.89C81.1241 10.89 83.0841 11.8 84.2041 13.62C85.3441 15.44 85.9141 18.15 85.9141 21.75C85.9141 24.27 85.6841 26.35 85.2241 27.99C84.7841 29.63 84.0241 30.88 82.9441 31.74C81.8841 32.6 80.4241 33.03 78.5641 33.03C76.5241 33.03 74.9341 32.48 73.7941 31.38C72.6541 30.28 72.0041 28.88 71.8441 27.18H74.3641ZM78.5941 22.8C79.9341 22.8 81.0341 22.39 81.8941 21.57C82.7541 20.73 83.1841 19.6 83.1841 18.18C83.1841 16.68 82.7641 15.47 81.9241 14.55C81.0841 13.63 79.9041 13.17 78.3841 13.17C76.9841 13.17 75.8641 13.61 75.0241 14.49C74.2041 15.37 73.7941 16.53 73.7941 17.97C73.7941 19.43 74.2041 20.6 75.0241 21.48C75.8441 22.36 77.0341 22.8 78.5941 22.8ZM93.2606 27.18C93.4606 28.32 93.9206 29.2 94.6406 29.82C95.3806 30.44 96.3706 30.75 97.6106 30.75C99.2706 30.75 100.491 30.1 101.271 28.8C102.071 27.5 102.451 25.31 102.411 22.23C101.991 23.13 101.291 23.84 100.311 24.36C99.3306 24.86 98.2406 25.11 97.0406 25.11C95.7006 25.11 94.5006 24.84 93.4406 24.3C92.4006 23.74 91.5806 22.93 90.9806 21.87C90.3806 20.81 90.0806 19.53 90.0806 18.03C90.0806 15.89 90.7006 14.17 91.9406 12.87C93.1806 11.55 94.9406 10.89 97.2206 10.89C100.021 10.89 101.981 11.8 103.101 13.62C104.241 15.44 104.811 18.15 104.811 21.75C104.811 24.27 104.581 26.35 104.121 27.99C103.681 29.63 102.921 30.88 101.841 31.74C100.781 32.6 99.3206 33.03 97.4606 33.03C95.4206 33.03 93.8306 32.48 92.6906 31.38C91.5506 30.28 90.9006 28.88 90.7406 27.18H93.2606ZM97.4906 22.8C98.8306 22.8 99.9306 22.39 100.791 21.57C101.651 20.73 102.081 19.6 102.081 18.18C102.081 16.68 101.661 15.47 100.821 14.55C99.9806 13.63 98.8006 13.17 97.2806 13.17C95.8806 13.17 94.7606 13.61 93.9206 14.49C93.1006 15.37 92.6906 16.53 92.6906 17.97C92.6906 19.43 93.1006 20.6 93.9206 21.48C94.7406 22.36 95.9306 22.8 97.4906 22.8Z" fill="#263238"/>
<path d="M117.823 19.954C118.147 19.39 118.627 18.922 119.263 18.55C119.911 18.166 120.661 17.974 121.513 17.974C122.389 17.974 123.181 18.184 123.889 18.604C124.609 19.024 125.173 19.618 125.581 20.386C125.989 21.142 126.193 22.024 126.193 23.032C126.193 24.028 125.989 24.916 125.581 25.696C125.173 26.476 124.609 27.082 123.889 27.514C123.181 27.946 122.389 28.162 121.513 28.162C120.673 28.162 119.929 27.976 119.281 27.604C118.645 27.22 118.159 26.746 117.823 26.182V32.68H116.185V18.136H117.823V19.954ZM124.519 23.032C124.519 22.288 124.369 21.64 124.069 21.088C123.769 20.536 123.361 20.116 122.845 19.828C122.341 19.54 121.783 19.396 121.171 19.396C120.571 19.396 120.013 19.546 119.497 19.846C118.993 20.134 118.585 20.56 118.273 21.124C117.973 21.676 117.823 22.318 117.823 23.05C117.823 23.794 117.973 24.448 118.273 25.012C118.585 25.564 118.993 25.99 119.497 26.29C120.013 26.578 120.571 26.722 121.171 26.722C121.783 26.722 122.341 26.578 122.845 26.29C123.361 25.99 123.769 25.564 124.069 25.012C124.369 24.448 124.519 23.788 124.519 23.032ZM137.349 22.69C137.349 23.002 137.331 23.332 137.295 23.68H129.411C129.471 24.652 129.801 25.414 130.401 25.966C131.013 26.506 131.751 26.776 132.615 26.776C133.323 26.776 133.911 26.614 134.379 26.29C134.859 25.954 135.195 25.51 135.387 24.958H137.151C136.887 25.906 136.359 26.68 135.567 27.28C134.775 27.868 133.791 28.162 132.615 28.162C131.679 28.162 130.839 27.952 130.095 27.532C129.363 27.112 128.787 26.518 128.367 25.75C127.947 24.97 127.737 24.07 127.737 23.05C127.737 22.03 127.941 21.136 128.349 20.368C128.757 19.6 129.327 19.012 130.059 18.604C130.803 18.184 131.655 17.974 132.615 17.974C133.551 17.974 134.379 18.178 135.099 18.586C135.819 18.994 136.371 19.558 136.755 20.278C137.151 20.986 137.349 21.79 137.349 22.69ZM135.657 22.348C135.657 21.724 135.519 21.19 135.243 20.746C134.967 20.29 134.589 19.948 134.109 19.72C133.641 19.48 133.119 19.36 132.543 19.36C131.715 19.36 131.007 19.624 130.419 20.152C129.843 20.68 129.513 21.412 129.429 22.348H135.657ZM141.149 19.738C141.437 19.174 141.845 18.736 142.373 18.424C142.913 18.112 143.567 17.956 144.335 17.956V19.648H143.903C142.067 19.648 141.149 20.644 141.149 22.636V28H139.511V18.136H141.149V19.738ZM162.887 17.956C163.655 17.956 164.339 18.118 164.939 18.442C165.539 18.754 166.013 19.228 166.361 19.864C166.709 20.5 166.883 21.274 166.883 22.186V28H165.263V22.42C165.263 21.436 165.017 20.686 164.525 20.17C164.045 19.642 163.391 19.378 162.563 19.378C161.711 19.378 161.033 19.654 160.529 20.206C160.025 20.746 159.773 21.532 159.773 22.564V28H158.153V22.42C158.153 21.436 157.907 20.686 157.415 20.17C156.935 19.642 156.281 19.378 155.453 19.378C154.601 19.378 153.923 19.654 153.419 20.206C152.915 20.746 152.663 21.532 152.663 22.564V28H151.025V18.136H152.663V19.558C152.987 19.042 153.419 18.646 153.959 18.37C154.511 18.094 155.117 17.956 155.777 17.956C156.605 17.956 157.337 18.142 157.973 18.514C158.609 18.886 159.083 19.432 159.395 20.152C159.671 19.456 160.127 18.916 160.763 18.532C161.399 18.148 162.107 17.956 162.887 17.956ZM173.872 28.162C172.948 28.162 172.108 27.952 171.352 27.532C170.608 27.112 170.02 26.518 169.588 25.75C169.168 24.97 168.958 24.07 168.958 23.05C168.958 22.042 169.174 21.154 169.606 20.386C170.05 19.606 170.65 19.012 171.406 18.604C172.162 18.184 173.008 17.974 173.944 17.974C174.88 17.974 175.726 18.184 176.482 18.604C177.238 19.012 177.832 19.6 178.264 20.368C178.708 21.136 178.93 22.03 178.93 23.05C178.93 24.07 178.702 24.97 178.246 25.75C177.802 26.518 177.196 27.112 176.428 27.532C175.66 27.952 174.808 28.162 173.872 28.162ZM173.872 26.722C174.46 26.722 175.012 26.584 175.528 26.308C176.044 26.032 176.458 25.618 176.77 25.066C177.094 24.514 177.256 23.842 177.256 23.05C177.256 22.258 177.1 21.586 176.788 21.034C176.476 20.482 176.068 20.074 175.564 19.81C175.06 19.534 174.514 19.396 173.926 19.396C173.326 19.396 172.774 19.534 172.27 19.81C171.778 20.074 171.382 20.482 171.082 21.034C170.782 21.586 170.632 22.258 170.632 23.05C170.632 23.854 170.776 24.532 171.064 25.084C171.364 25.636 171.76 26.05 172.252 26.326C172.744 26.59 173.284 26.722 173.872 26.722ZM185.889 17.956C187.089 17.956 188.061 18.322 188.805 19.054C189.549 19.774 189.921 20.818 189.921 22.186V28H188.301V22.42C188.301 21.436 188.055 20.686 187.563 20.17C187.071 19.642 186.399 19.378 185.547 19.378C184.683 19.378 183.993 19.648 183.477 20.188C182.973 20.728 182.721 21.514 182.721 22.546V28H181.083V18.136H182.721V19.54C183.045 19.036 183.483 18.646 184.035 18.37C184.599 18.094 185.217 17.956 185.889 17.956ZM194.595 19.486V25.3C194.595 25.78 194.697 26.122 194.901 26.326C195.105 26.518 195.459 26.614 195.963 26.614H197.169V28H195.693C194.781 28 194.097 27.79 193.641 27.37C193.185 26.95 192.957 26.26 192.957 25.3V19.486H191.679V18.136H192.957V15.652H194.595V18.136H197.169V19.486H194.595ZM204.05 17.956C204.794 17.956 205.466 18.118 206.066 18.442C206.666 18.754 207.134 19.228 207.47 19.864C207.818 20.5 207.992 21.274 207.992 22.186V28H206.372V22.42C206.372 21.436 206.126 20.686 205.634 20.17C205.142 19.642 204.47 19.378 203.618 19.378C202.754 19.378 202.064 19.648 201.548 20.188C201.044 20.728 200.792 21.514 200.792 22.546V28H199.154V14.68H200.792V19.54C201.116 19.036 201.56 18.646 202.124 18.37C202.7 18.094 203.342 17.956 204.05 17.956Z" fill="#546269"/>
</svg>
